# File created by Luuv tsx 1.1.5
# Created on: Tue Oct 12 00:16:59 2010 0x05f36c60
# Vertices: 192
# Texture vertices: 226
# Normals: 192
# Faces: 256

mtllib Glass Adaptor.mtl
v -1.033518 4.486511 0.885521
v -1.027956 4.486511 0.942538
v -1.011482 4.486511 0.997364
v -0.984730 4.486512 1.047892
v -0.948728 4.486512 1.092180
v -0.904860 4.486512 1.128526
v -0.854810 4.486512 1.155534
v -0.800503 4.486512 1.172165
v -0.744026 4.486512 1.177781
v -0.687549 4.486512 1.172165
v -0.633242 4.486512 1.155534
v -0.583193 4.486512 1.128526
v -0.539324 4.486512 1.092180
v -0.503322 4.486511 1.047892
v -0.476570 4.486511 0.997364
v -0.460097 4.486511 0.942538
v -0.454534 4.486511 0.885521
v -0.460097 4.486511 0.828504
v -0.476570 4.486511 0.773678
v -0.503322 4.486511 0.723150
v -0.539324 4.486511 0.678862
v -0.583193 4.486511 0.642516
v -0.633242 4.486511 0.615508
v -0.687549 4.486511 0.598877
v -0.744026 4.486511 0.593261
v -0.800503 4.486511 0.598877
v -0.854810 4.486511 0.615508
v -0.904860 4.486511 0.642516
v -0.948728 4.486511 0.678862
v -0.984730 4.486511 0.723150
v -1.011482 4.486511 0.773678
v -1.027956 4.486511 0.828504
v -1.232572 5.500041 0.885520
v -1.223184 5.500041 0.977878
v -1.195383 5.500041 1.066686
v -1.150237 5.500041 1.148532
v -1.089480 5.500041 1.220271
v -1.015448 5.500041 1.279145
v -0.930985 5.500041 1.322893
v -0.839337 5.500041 1.349833
v -0.744027 5.500041 1.358929
v -0.648716 5.500041 1.349833
v -0.557069 5.500041 1.322894
v -0.472606 5.500041 1.279146
v -0.398573 5.500041 1.220271
v -0.337816 5.500041 1.148533
v -0.292670 5.500041 1.066686
v -0.264869 5.500041 0.977878
v -0.255482 5.500041 0.885521
v -0.264869 5.500041 0.793163
v -0.292670 5.500041 0.704355
v -0.337816 5.500041 0.622509
v -0.398573 5.500041 0.550770
v -0.472605 5.500041 0.491896
v -0.557068 5.500041 0.448148
v -0.648716 5.500041 0.421208
v -0.744027 5.500041 0.412112
v -0.839337 5.500041 0.421208
v -0.930985 5.500041 0.448148
v -1.015448 5.500041 0.491896
v -1.089480 5.500041 0.550770
v -1.150237 5.500041 0.622509
v -1.195383 5.500041 0.704355
v -1.223184 5.500041 0.793163
v -0.862092 5.500041 0.863157
v -0.862092 4.486511 0.863157
v -0.855253 5.500041 0.840593
v -0.855253 4.486511 0.840594
v -0.844146 5.500041 0.819799
v -0.844146 4.486511 0.819799
v -0.829199 5.500041 0.801572
v -0.829199 4.486511 0.801573
v -0.810986 5.500041 0.786614
v -0.810985 4.486511 0.786615
v -0.790206 5.500041 0.775499
v -0.790206 4.486511 0.775500
v -0.767660 5.500041 0.768655
v -0.767659 4.486511 0.768655
v -0.744212 5.500041 0.766344
v -0.744211 4.486511 0.766344
v -0.720764 5.500041 0.768655
v -0.720763 4.486511 0.768655
v -0.698217 5.500041 0.775499
v -0.698217 4.486511 0.775500
v -0.677438 5.500041 0.786614
v -0.677437 4.486511 0.786615
v -0.659224 5.500041 0.801572
v -0.659224 4.486511 0.801573
v -0.644277 5.500041 0.819799
v -0.644277 4.486511 0.819799
v -0.633170 5.500041 0.840593
v -0.633170 4.486511 0.840594
v -0.626331 5.500041 0.863157
v -0.626331 4.486511 0.863157
v -0.624022 5.500041 0.886622
v -0.624021 4.486511 0.886622
v -0.626331 5.500041 0.910087
v -0.626331 4.486511 0.910087
v -0.633170 5.500041 0.932650
v -0.633170 4.486511 0.932651
v -0.644277 5.500041 0.953445
v -0.644277 4.486511 0.953445
v -0.659224 5.500041 0.971671
v -0.659224 4.486511 0.971672
v -0.677438 5.500041 0.986629
v -0.677437 4.486511 0.986630
v -0.698217 5.500041 0.997744
v -0.698217 4.486511 0.997745
v -0.720764 5.500041 1.004589
v -0.720763 4.486511 1.004589
v -0.744212 5.500041 1.006900
v -0.744211 4.486511 1.006900
v -0.767660 5.500041 1.004589
v -0.767659 4.486511 1.004589
v -0.790206 5.500041 0.997744
v -0.790206 4.486511 0.997745
v -0.810986 5.500041 0.986629
v -0.810985 4.486511 0.986630
v -0.829199 5.500041 0.971671
v -0.829199 4.486511 0.971672
v -0.844146 5.500041 0.953445
v -0.844146 4.486511 0.953445
v -0.855253 5.500041 0.932650
v -0.855253 4.486511 0.932651
v -0.864401 4.486511 0.886622
v -0.864402 5.500041 0.886622
v -0.862092 5.500041 0.910087
v -0.862092 4.486511 0.910087
v -0.862092 4.486511 0.910087
v -0.862092 5.500041 0.910087
v -0.864402 5.500041 0.886622
v -0.864401 4.486511 0.886622
v -0.855253 4.486511 0.932651
v -0.855253 5.500041 0.932650
v -0.844146 4.486511 0.953445
v -0.844146 5.500041 0.953445
v -0.829199 4.486511 0.971672
v -0.829199 5.500041 0.971671
v -0.810985 4.486511 0.986630
v -0.810986 5.500041 0.986629
v -0.790206 4.486511 0.997745
v -0.790206 5.500041 0.997744
v -0.767659 4.486511 1.004589
v -0.767660 5.500041 1.004589
v -0.744211 4.486511 1.006900
v -0.744212 5.500041 1.006900
v -0.720763 4.486511 1.004589
v -0.720764 5.500041 1.004589
v -0.698217 4.486511 0.997745
v -0.698217 5.500041 0.997744
v -0.677437 4.486511 0.986630
v -0.677438 5.500041 0.986629
v -0.659224 4.486511 0.971672
v -0.659224 5.500041 0.971671
v -0.644277 4.486511 0.953445
v -0.644277 5.500041 0.953445
v -0.633170 4.486511 0.932651
v -0.633170 5.500041 0.932650
v -0.626331 4.486511 0.910087
v -0.626331 5.500041 0.910087
v -0.624021 4.486511 0.886622
v -0.624022 5.500041 0.886622
v -0.626331 4.486511 0.863157
v -0.626331 5.500041 0.863157
v -0.633170 4.486511 0.840594
v -0.633170 5.500041 0.840593
v -0.644277 4.486511 0.819799
v -0.644277 5.500041 0.819799
v -0.659224 4.486511 0.801573
v -0.659224 5.500041 0.801572
v -0.677437 4.486511 0.786615
v -0.677438 5.500041 0.786614
v -0.698217 4.486511 0.775500
v -0.698217 5.500041 0.775499
v -0.720763 4.486511 0.768655
v -0.720764 5.500041 0.768655
v -0.744211 4.486511 0.766344
v -0.744212 5.500041 0.766344
v -0.767659 4.486511 0.768655
v -0.767660 5.500041 0.768655
v -0.790206 4.486511 0.775500
v -0.790206 5.500041 0.775499
v -0.810985 4.486511 0.786615
v -0.810986 5.500041 0.786614
v -0.829199 4.486511 0.801573
v -0.829199 5.500041 0.801572
v -0.844146 4.486511 0.819799
v -0.844146 5.500041 0.819799
v -0.855253 4.486511 0.840594
v -0.855253 5.500041 0.840593
v -0.862092 4.486511 0.863157
v -0.862092 5.500041 0.863157

vt 0.009607 0.597545
vt 0.000000 0.000000
vt 1.000000 0.000000
vt 0.031250 0.000000
vt 0.000000 0.500000
vt 0.062500 0.000000
vt 0.093750 0.000000
vt 0.038060 0.691342
vt 0.125000 0.000000
vt 0.084265 0.777785
vt 0.156250 0.000000
vt 0.146447 0.853553
vt 0.187500 0.000000
vt 0.222215 0.915735
vt 0.218750 0.000000
vt 0.308658 0.961940
vt 0.250000 0.000000
vt 0.402455 0.990393
vt 0.281250 0.000000
vt 0.500000 1.000000
vt 0.312500 0.000000
vt 0.597545 0.990393
vt 0.343750 0.000000
vt 0.691342 0.961940
vt 0.375000 0.000000
vt 0.777785 0.915735
vt 0.406250 0.000000
vt 0.853553 0.853553
vt 0.437500 0.000000
vt 0.915735 0.777785
vt 0.468750 0.000000
vt 0.961940 0.691342
vt 0.500000 0.000000
vt 0.990393 0.597545
vt 0.531250 0.000000
vt 1.000000 0.500000
vt 0.562500 0.000000
vt 0.990393 0.402455
vt 0.593750 0.000000
vt 0.961940 0.308658
vt 0.625000 0.000000
vt 0.915735 0.222215
vt 0.656250 0.000000
vt 0.853553 0.146447
vt 0.687500 0.000000
vt 0.777785 0.084265
vt 0.691342 0.038060
vt 0.718750 0.000000
vt 0.597545 0.009607
vt 0.750000 0.000000
vt 0.781250 0.000000
vt 0.402455 0.009607
vt 0.812500 0.000000
vt 0.308658 0.038060
vt 0.843750 0.000000
vt 0.222215 0.084265
vt 0.875000 0.000000
vt 0.146447 0.146447
vt 0.906250 0.000000
vt 0.084265 0.222215
vt 0.937500 0.000000
vt 0.038060 0.308658
vt 0.968750 0.000000
vt 1.000000 1.000000
vt 0.000000 1.000000
vt 0.031250 1.000000
vt 0.009607 0.402455
vt 0.062500 1.000000
vt 0.093750 1.000000
vt 0.125000 1.000000
vt 0.156250 1.000000
vt 0.187500 1.000000
vt 0.218750 1.000000
vt 0.250000 1.000000
vt 0.281250 1.000000
vt 0.312500 1.000000
vt 0.343750 1.000000
vt 0.375000 1.000000
vt 0.406250 1.000000
vt 0.437500 1.000000
vt 0.468750 1.000000
vt 0.531250 1.000000
vt 0.562500 1.000000
vt 0.593750 1.000000
vt 0.625000 1.000000
vt 0.656250 1.000000
vt 0.687500 1.000000
vt 0.718750 1.000000
vt 0.750000 1.000000
vt 0.781250 1.000000
vt 0.812500 1.000000
vt 0.843750 1.000000
vt 0.875000 1.000000
vt 0.906250 1.000000
vt 0.937500 1.000000
vt 0.968750 1.000000
vt 0.707268 0.501884
vt 0.703279 0.461740
vt 0.620455 0.523620
vt 0.622819 0.498837
vt 0.703279 0.542028
vt 0.620455 0.474054
vt 0.691466 0.423138
vt 0.613455 0.547451
vt 0.691466 0.580630
vt 0.613455 0.450223
vt 0.672283 0.387563
vt 0.602088 0.569413
vt 0.672283 0.616205
vt 0.602088 0.428260
vt 0.646467 0.356381
vt 0.586790 0.588664
vt 0.646467 0.647387
vt 0.586790 0.409010
vt 0.615010 0.330790
vt 0.568150 0.604462
vt 0.615010 0.672978
vt 0.568150 0.393212
vt 0.579121 0.311775
vt 0.546884 0.616201
vt 0.579121 0.691993
vt 0.546884 0.381473
vt 0.540179 0.300065
vt 0.523808 0.623430
vt 0.540179 0.703703
vt 0.523808 0.374244
vt 0.499680 0.296111
vt 0.499811 0.625871
vt 0.499680 0.707657
vt 0.499811 0.371803
vt 0.459182 0.300065
vt 0.475813 0.623430
vt 0.459182 0.703703
vt 0.475813 0.374244
vt 0.420240 0.311775
vt 0.452737 0.616201
vt 0.420240 0.691993
vt 0.452737 0.381473
vt 0.384351 0.330790
vt 0.431471 0.604462
vt 0.384351 0.672978
vt 0.431471 0.393212
vt 0.352894 0.356381
vt 0.412831 0.588664
vt 0.352894 0.647387
vt 0.412831 0.409010
vt 0.327077 0.387563
vt 0.397533 0.569413
vt 0.327077 0.616205
vt 0.397533 0.428260
vt 0.307894 0.423138
vt 0.386166 0.547451
vt 0.307894 0.580630
vt 0.386166 0.450223
vt 0.296081 0.461740
vt 0.379166 0.523620
vt 0.296081 0.542028
vt 0.379166 0.474054
vt 0.292092 0.501884
vt 0.376802 0.498837
vt 0.031250 0.862566
vt 0.031250 0.451330
vt 0.000000 0.451330
vt 1.000000 0.862566
vt 0.062500 0.862566
vt 0.062500 0.451330
vt 0.093750 0.862566
vt 0.093750 0.451330
vt 0.125000 0.862566
vt 0.125000 0.451330
vt 0.156250 0.862566
vt 0.156250 0.451330
vt 0.187500 0.862566
vt 0.187500 0.451330
vt 0.218750 0.862566
vt 0.218750 0.451330
vt 0.250000 0.862566
vt 0.250000 0.451330
vt 0.281250 0.862566
vt 0.281250 0.451330
vt 0.312500 0.862566
vt 0.312500 0.451330
vt 0.343750 0.862566
vt 0.343750 0.451330
vt 0.375000 0.862566
vt 0.375000 0.451330
vt 0.406250 0.862566
vt 0.406250 0.451330
vt 0.437500 0.862566
vt 0.437500 0.451330
vt 0.468750 0.862566
vt 0.468750 0.451330
vt 0.500000 0.862566
vt 0.500000 0.451330
vt 0.531250 0.862566
vt 0.531250 0.451330
vt 0.562500 0.862566
vt 0.562500 0.451330
vt 0.593750 0.862566
vt 0.593750 0.451330
vt 0.625000 0.862566
vt 0.625000 0.451330
vt 0.656250 0.862566
vt 0.656250 0.451330
vt 0.687500 0.862566
vt 0.687500 0.451330
vt 0.718750 0.862566
vt 0.718750 0.451330
vt 0.750000 0.862566
vt 0.750000 0.451330
vt 0.781250 0.862566
vt 0.781250 0.451330
vt 0.812500 0.862566
vt 0.812500 0.451330
vt 0.843750 0.862566
vt 0.843750 0.451330
vt 0.875000 0.862566
vt 0.875000 0.451330
vt 0.906250 0.862566
vt 0.906250 0.451330
vt 0.937500 0.862566
vt 0.937500 0.451330
vt 0.968750 0.862566
vt 0.968750 0.451330
vt 1.000000 0.451330
vt 0.000000 0.862566

vn -0.467564 -0.883959 0.000082
vn -0.459011 -0.883594 0.092579
vn -0.433247 -0.882733 0.181876
vn -0.390991 -0.881504 0.264721
vn -0.333545 -0.880087 0.337927
vn -0.262852 -0.878696 0.398499
vn -0.181508 -0.877548 0.443806
vn -0.092706 -0.876822 0.471793
vn 0.000000 -0.876583 0.481250
vn 0.092706 -0.876822 0.471793
vn 0.181508 -0.877548 0.443806
vn 0.262852 -0.878696 0.398499
vn 0.332942 -0.880324 0.337904
vn 0.390335 -0.881951 0.264199
vn 0.432703 -0.883073 0.181521
vn 0.458702 -0.883777 0.092362
vn 0.467565 -0.883959 -0.000081
vn 0.459011 -0.883594 -0.092578
vn 0.433248 -0.882733 -0.181875
vn 0.390991 -0.881504 -0.264720
vn 0.333546 -0.880087 -0.337927
vn 0.262852 -0.878697 -0.398498
vn 0.181508 -0.877549 -0.443805
vn 0.092706 -0.876823 -0.471792
vn 0.000000 -0.876584 -0.481249
vn -0.092706 -0.876823 -0.471792
vn -0.181508 -0.877549 -0.443805
vn -0.262852 -0.878697 -0.398498
vn -0.332941 -0.880325 -0.337903
vn -0.390334 -0.881952 -0.264198
vn -0.432702 -0.883074 -0.181520
vn -0.458702 -0.883777 -0.092361
vn -0.687790 0.725910 0.000070
vn -0.673108 0.726114 0.140300
vn -0.629997 0.726891 0.273373
vn -0.561569 0.728116 0.393048
vn -0.472250 0.729592 0.494647
vn -0.366958 0.731089 0.575196
vn -0.250435 0.732381 0.633167
vn -0.126909 0.733285 0.667973
vn 0.000000 0.733619 0.679561
vn 0.126909 0.733285 0.667973
vn 0.250434 0.732381 0.633167
vn 0.366957 0.731089 0.575197
vn 0.471800 0.729863 0.494677
vn 0.561170 0.728607 0.392709
vn 0.629670 0.727268 0.273125
vn 0.672923 0.726318 0.140130
vn 0.687789 0.725910 -0.000071
vn 0.673108 0.726114 -0.140301
vn 0.629997 0.726891 -0.273374
vn 0.561569 0.728116 -0.393049
vn 0.472250 0.729592 -0.494647
vn 0.366957 0.731089 -0.575197
vn 0.250435 0.732381 -0.633167
vn 0.126909 0.733284 -0.667973
vn 0.000000 0.733618 -0.679562
vn -0.126909 0.733284 -0.667973
vn -0.250435 0.732381 -0.633167
vn -0.366957 0.731089 -0.575197
vn -0.471800 0.729862 -0.494677
vn -0.561171 0.728606 -0.392709
vn -0.629670 0.727268 -0.273126
vn -0.672923 0.726318 -0.140130
vn 0.518714 0.848467 0.105065
vn 0.518672 -0.848493 0.105064
vn 0.488061 0.848186 0.205859
vn 0.488061 -0.848185 0.205859
vn 0.438496 0.847766 0.298353
vn 0.438496 -0.847765 0.298355
vn 0.372165 0.847274 0.378972
vn 0.372164 -0.847274 0.378973
vn 0.291825 0.846787 0.444736
vn 0.291825 -0.846787 0.444736
vn 0.200674 0.846376 0.493333
vn 0.200674 -0.846376 0.493333
vn 0.102188 0.846102 0.523134
vn 0.102189 -0.846115 0.523113
vn 0.000000 0.846006 0.533173
vn 0.000000 -0.846007 0.533171
vn -0.102189 0.846102 0.523134
vn -0.102189 -0.846115 0.523113
vn -0.200675 0.846376 0.493333
vn -0.200674 -0.846376 0.493333
vn -0.291826 0.846787 0.444736
vn -0.291825 -0.846787 0.444736
vn -0.372165 0.847274 0.378972
vn -0.372164 -0.847274 0.378972
vn -0.438496 0.847766 0.298352
vn -0.438496 -0.847765 0.298355
vn -0.488061 0.848185 0.205859
vn -0.488060 -0.848186 0.205859
vn -0.518714 0.848467 0.105065
vn -0.518714 -0.848468 0.105066
vn -0.529089 0.848567 -0.000001
vn -0.529088 -0.848567 0.000000
vn -0.518714 0.848467 -0.105066
vn -0.518714 -0.848468 -0.105066
vn -0.488061 0.848185 -0.205859
vn -0.488061 -0.848186 -0.205859
vn -0.438496 0.847766 -0.298353
vn -0.438496 -0.847766 -0.298352
vn -0.372165 0.847274 -0.378972
vn -0.372164 -0.847275 -0.378972
vn -0.291825 0.846786 -0.444737
vn -0.291825 -0.846787 -0.444736
vn -0.200675 0.846375 -0.493334
vn -0.200674 -0.846376 -0.493333
vn -0.102189 0.846102 -0.523134
vn -0.102188 -0.846103 -0.523132
vn 0.000000 0.846006 -0.533173
vn 0.000000 -0.846007 -0.533171
vn 0.102188 0.846102 -0.523133
vn 0.102189 -0.846103 -0.523132
vn 0.200674 0.846376 -0.493334
vn 0.200675 -0.846376 -0.493333
vn 0.291825 0.846786 -0.444737
vn 0.291825 -0.846787 -0.444735
vn 0.372131 0.847300 -0.378947
vn 0.372165 -0.847275 -0.378971
vn 0.438496 0.847766 -0.298353
vn 0.438465 -0.847792 -0.298324
vn 0.488020 0.848212 -0.205848
vn 0.488061 -0.848186 -0.205858
vn 0.529046 -0.848593 0.000006
vn 0.529046 0.848593 -0.000006
vn 0.518715 0.848467 -0.105065
vn 0.518674 -0.848494 -0.105051
vn 0.000000 0.000000 0.000000
vn 0.000000 0.000000 0.000000
vn 0.000000 0.000000 0.000000
vn 0.000000 0.000000 0.000000
vn 0.000000 0.000000 0.000000
vn 0.000000 0.000000 0.000000
vn 0.000000 0.000000 0.000000
vn 0.000000 0.000000 0.000000
vn 0.000000 0.000000 0.000000
vn 0.000000 0.000000 0.000000
vn 0.000000 0.000000 0.000000
vn 0.000000 0.000000 0.000000
vn 0.000000 0.000000 0.000000
vn 0.000000 0.000000 0.000000
vn 0.000000 0.000000 0.000000
vn 0.000000 0.000000 0.000000
vn 0.000000 0.000000 0.000000
vn 0.000000 0.000000 0.000000
vn 0.000000 0.000000 0.000000
vn 0.000000 0.000000 0.000000
vn 0.000000 0.000000 0.000000
vn 0.000000 0.000000 0.000000
vn 0.000000 0.000000 0.000000
vn 0.000000 0.000000 0.000000
vn 0.000000 0.000000 0.000000
vn 0.000000 0.000000 0.000000
vn 0.000000 0.000000 0.000000
vn 0.000000 0.000000 0.000000
vn 0.000000 0.000000 0.000000
vn 0.000000 0.000000 0.000000
vn 0.000000 0.000000 0.000000
vn 0.000000 0.000000 0.000000
vn 0.000000 0.000000 0.000000
vn 0.000000 0.000000 0.000000
vn 0.000000 0.000000 0.000000
vn 0.000000 0.000000 0.000000
vn 0.000000 0.000000 0.000000
vn 0.000000 0.000000 0.000000
vn 0.000000 0.000000 0.000000
vn 0.000000 0.000000 0.000000
vn 0.000000 0.000000 0.000000
vn 0.000000 0.000000 0.000000
vn 0.000000 0.000000 0.000000
vn 0.000000 0.000000 0.000000
vn 0.000000 0.000000 0.000000
vn 0.000000 0.000000 0.000000
vn 0.000000 0.000000 0.000000
vn 0.000000 0.000000 0.000000
vn 0.000000 0.000000 0.000000
vn 0.000000 0.000000 0.000000
vn 0.000000 0.000000 0.000000
vn 0.000000 0.000000 0.000000
vn 0.000000 0.000000 0.000000
vn 0.000000 0.000000 0.000000
vn 0.000000 0.000000 0.000000
vn 0.000000 0.000000 0.000000
vn 0.000000 0.000000 0.000000
vn 0.000000 0.000000 0.000000
vn 0.000000 0.000000 0.000000
vn 0.000000 0.000000 0.000000
vn 0.000000 0.000000 0.000000
vn 0.000000 0.000000 0.000000
vn 0.000000 0.000000 0.000000
vn 0.000000 0.000000 0.000000

mtllib Glass Adaptor.mtl

g Default
s 1
usemtl Cylinder
f 34/66/34 33/65/33 1/2/1
f 34/66/34 1/2/1 2/4/2
f 35/68/35 34/66/34 2/4/2
f 35/68/35 2/4/2 3/6/3
f 36/69/36 35/68/35 3/6/3
f 36/69/36 3/6/3 4/7/4
f 37/70/37 36/69/36 4/7/4
f 37/70/37 4/7/4 5/9/5
f 38/71/38 37/70/37 5/9/5
f 38/71/38 5/9/5 6/11/6
f 39/72/39 38/71/38 6/11/6
f 39/72/39 6/11/6 7/13/7
f 39/72/39 7/13/7 40/73/40
f 40/73/40 7/13/7 8/15/8
f 40/73/40 8/15/8 41/74/41
f 41/74/41 8/15/8 9/17/9
f 41/74/41 9/17/9 10/19/10
f 41/74/41 10/19/10 42/75/42
f 42/75/42 10/19/10 11/21/11
f 42/75/42 11/21/11 43/76/43
f 11/21/11 12/23/12 43/76/43
f 43/76/43 12/23/12 44/77/44
f 12/23/12 13/25/13 44/77/44
f 44/77/44 13/25/13 45/78/45
f 46/79/46 45/78/45 13/25/13
f 46/79/46 13/25/13 14/27/14
f 47/80/47 46/79/46 14/27/14
f 47/80/47 14/27/14 15/29/15
f 48/81/48 47/80/47 15/29/15
f 48/81/48 15/29/15 16/31/16
f 49/20/49 48/81/48 16/31/16
f 49/20/49 16/31/16 17/33/17
f 50/82/50 49/20/49 17/33/17
f 50/82/50 17/33/17 18/35/18
f 51/83/51 50/82/50 18/35/18
f 51/83/51 18/35/18 19/37/19
f 52/84/52 51/83/51 19/37/19
f 52/84/52 19/37/19 20/39/20
f 53/85/53 52/84/52 20/39/20
f 53/85/53 20/39/20 21/41/21
f 21/41/21 22/43/22 54/86/54
f 21/41/21 54/86/54 53/85/53
f 22/43/22 23/45/23 55/87/55
f 22/43/22 55/87/55 54/86/54
f 24/48/24 56/88/56 23/45/23
f 23/45/23 56/88/56 55/87/55
f 25/50/25 57/89/57 24/48/24
f 24/48/24 57/89/57 56/88/56
f 26/51/26 58/90/58 57/89/57
f 26/51/26 57/89/57 25/50/25
f 27/53/27 59/91/59 58/90/58
f 27/53/27 58/90/58 26/51/26
f 60/92/60 59/91/59 28/55/28
f 28/55/28 59/91/59 27/53/27
f 61/93/61 60/92/60 29/57/29
f 29/57/29 60/92/60 28/55/28
f 62/94/62 61/93/61 29/57/29
f 62/94/62 29/57/29 30/59/30
f 63/95/63 62/94/62 30/59/30
f 63/95/63 30/59/30 31/61/31
f 64/96/64 63/95/63 31/61/31
f 64/96/64 31/61/31 32/63/32
f 33/64/33 64/96/64 32/63/32
f 33/64/33 32/63/32 1/3/1
f 35/62/35 111/130/111 113/134/113
f 35/62/35 113/134/113 115/138/115
f 35/62/35 115/138/115 117/142/117
f 35/62/35 117/142/117 34/67/34
f 34/67/34 117/142/117 119/146/119
f 34/67/34 119/146/119 121/150/121
f 34/67/34 121/150/121 123/154/123
f 34/67/34 123/154/123 127/158/127
f 34/67/34 127/158/127 126/160/126
f 34/67/34 126/160/126 33/5/33
f 33/5/33 126/160/126 65/156/65
f 33/5/33 65/156/65 67/152/67
f 33/5/33 67/152/67 69/148/69
f 33/5/33 69/148/69 71/144/71
f 33/5/33 71/144/71 64/1/64
f 64/1/64 71/144/71 73/140/73
f 64/1/64 73/140/73 75/136/75
f 64/1/64 75/136/75 77/132/77
f 64/1/64 77/132/77 79/128/79
f 64/1/64 79/128/79 51/32/51
f 64/1/64 51/32/51 63/8/63
f 63/8/63 51/32/51 52/30/52
f 63/8/63 52/30/52 62/10/62
f 62/10/62 52/30/52 53/28/53
f 62/10/62 53/28/53 61/12/61
f 61/12/61 53/28/53 54/26/54
f 61/12/61 54/26/54 60/14/60
f 60/14/60 54/26/54 55/24/55
f 60/14/60 55/24/55 59/16/59
f 59/16/59 55/24/55 56/22/56
f 59/16/59 56/22/56 58/18/58
f 58/18/58 56/22/56 57/20/57
f 41/33/41 42/49/42 40/52/40
f 40/52/40 42/49/42 43/47/43
f 40/52/40 43/47/43 39/54/39
f 39/54/39 43/47/43 44/46/44
f 39/54/39 44/46/44 38/56/38
f 38/56/38 44/46/44 45/44/45
f 38/56/38 45/44/45 37/58/37
f 37/58/37 45/44/45 46/42/46
f 37/58/37 46/42/46 36/60/36
f 36/60/36 46/42/46 47/40/47
f 36/60/36 47/40/47 35/62/35
f 35/62/35 47/40/47 111/130/111
f 111/130/111 47/40/47 109/126/109
f 109/126/109 47/40/47 107/122/107
f 107/122/107 47/40/47 105/118/105
f 105/118/105 47/40/47 48/38/48
f 105/118/105 48/38/48 103/114/103
f 103/114/103 48/38/48 101/110/101
f 101/110/101 48/38/48 99/106/99
f 99/106/99 48/38/48 97/102/97
f 97/102/97 48/38/48 95/100/95
f 95/100/95 48/38/48 49/36/49
f 95/100/95 49/36/49 93/99/93
f 93/99/93 49/36/49 91/104/91
f 91/104/91 49/36/49 89/108/89
f 89/108/89 49/36/49 87/112/87
f 87/112/87 49/36/49 50/34/50
f 87/112/87 50/34/50 85/116/85
f 85/116/85 50/34/50 83/120/83
f 83/120/83 50/34/50 81/124/81
f 81/124/81 50/34/50 79/128/79
f 79/128/79 50/34/50 51/32/51
f 112/129/112 4/10/4 114/133/114
f 114/133/114 4/10/4 116/137/116
f 116/137/116 4/10/4 3/8/3
f 116/137/116 3/8/3 118/141/118
f 118/141/118 3/8/3 120/145/120
f 120/145/120 3/8/3 122/149/122
f 122/149/122 3/8/3 2/1/2
f 122/149/122 2/1/2 124/153/124
f 124/153/124 2/1/2 128/157/128
f 128/157/128 2/1/2 125/159/125
f 125/159/125 2/1/2 1/5/1
f 125/159/125 1/5/1 66/155/66
f 66/155/66 1/5/1 68/151/68
f 68/151/68 1/5/1 32/67/32
f 68/151/68 32/67/32 70/147/70
f 70/147/70 32/67/32 72/143/72
f 72/143/72 32/67/32 74/139/74
f 74/139/74 32/67/32 76/135/76
f 76/135/76 32/67/32 31/62/31
f 76/135/76 31/62/31 78/131/78
f 78/131/78 31/62/31 80/127/80
f 80/127/80 31/62/31 30/60/30
f 80/127/80 30/60/30 20/42/20
f 20/42/20 30/60/30 29/58/29
f 20/42/20 29/58/29 21/44/21
f 21/44/21 29/58/29 28/56/28
f 21/44/21 28/56/28 22/46/22
f 22/46/22 28/56/28 27/54/27
f 22/46/22 27/54/27 23/47/23
f 23/47/23 27/54/27 26/52/26
f 23/47/23 26/52/26 24/49/24
f 24/49/24 26/52/26 25/33/25
f 9/20/9 8/18/8 10/22/10
f 10/22/10 8/18/8 7/16/7
f 10/22/10 7/16/7 11/24/11
f 11/24/11 7/16/7 6/14/6
f 11/24/11 6/14/6 12/26/12
f 12/26/12 6/14/6 5/12/5
f 12/26/12 5/12/5 13/28/13
f 13/28/13 5/12/5 4/10/4
f 13/28/13 4/10/4 14/30/14
f 14/30/14 4/10/4 112/129/112
f 14/30/14 112/129/112 110/125/110
f 14/30/14 110/125/110 108/121/108
f 14/30/14 108/121/108 15/32/15
f 15/32/15 108/121/108 106/117/106
f 15/32/15 106/117/106 104/113/104
f 15/32/15 104/113/104 102/109/102
f 15/32/15 102/109/102 16/34/16
f 16/34/16 102/109/102 100/105/100
f 16/34/16 100/105/100 98/101/98
f 16/34/16 98/101/98 96/97/96
f 16/34/16 96/97/96 17/36/17
f 17/36/17 96/97/96 94/98/94
f 17/36/17 94/98/94 92/103/92
f 17/36/17 92/103/92 18/38/18
f 18/38/18 92/103/92 90/107/90
f 18/38/18 90/107/90 88/111/88
f 18/38/18 88/111/88 86/115/86
f 18/38/18 86/115/86 84/119/84
f 18/38/18 84/119/84 19/40/19
f 19/40/19 84/119/84 82/123/82
f 19/40/19 82/123/82 80/127/80
f 19/40/19 80/127/80 20/42/20
f 93/195/93 91/197/91 92/198/92
f 93/195/93 92/198/92 94/196/94
f 95/193/95 93/195/93 94/196/94
f 95/193/95 94/196/94 96/194/96
f 97/191/97 95/193/95 96/194/96
f 97/191/97 96/194/96 98/192/98
f 91/197/91 89/199/89 90/200/90
f 91/197/91 90/200/90 92/198/92
f 99/189/99 97/191/97 98/192/98
f 99/189/99 98/192/98 100/190/100
f 89/199/89 87/201/87 90/200/90
f 90/200/90 87/201/87 88/202/88
f 101/187/101 99/189/99 100/190/100
f 101/187/101 100/190/100 102/188/102
f 85/203/85 86/204/86 88/202/88
f 85/203/85 88/202/88 87/201/87
f 103/185/103 101/187/101 102/188/102
f 103/185/103 102/188/102 104/186/104
f 83/205/83 84/206/84 86/204/86
f 83/205/83 86/204/86 85/203/85
f 106/184/106 105/183/105 103/185/103
f 106/184/106 103/185/103 104/186/104
f 81/207/81 82/208/82 84/206/84
f 81/207/81 84/206/84 83/205/83
f 108/182/108 107/181/107 105/183/105
f 108/182/108 105/183/105 106/184/106
f 79/209/79 80/210/80 82/208/82
f 79/209/79 82/208/82 81/207/81
f 110/180/110 109/179/109 107/181/107
f 110/180/110 107/181/107 108/182/108
f 77/211/77 78/212/78 80/210/80
f 77/211/77 80/210/80 79/209/79
f 112/178/112 111/177/111 109/179/109
f 112/178/112 109/179/109 110/180/110
f 75/213/75 76/214/76 78/212/78
f 75/213/75 78/212/78 77/211/77
f 114/176/114 113/175/113 111/177/111
f 114/176/114 111/177/111 112/178/112
f 73/215/73 74/216/74 76/214/76
f 73/215/73 76/214/76 75/213/75
f 116/174/116 115/173/115 113/175/113
f 116/174/116 113/175/113 114/176/114
f 71/217/71 72/218/72 74/216/74
f 71/217/71 74/216/74 73/215/73
f 118/172/118 117/171/117 115/173/115
f 118/172/118 115/173/115 116/174/116
f 71/217/71 69/219/69 70/220/70
f 71/217/71 70/220/70 72/218/72
f 120/170/120 119/169/119 117/171/117
f 120/170/120 117/171/117 118/172/118
f 69/219/69 67/221/67 68/222/68
f 69/219/69 68/222/68 70/220/70
f 121/167/121 119/169/119 120/170/120
f 121/167/121 120/170/120 122/168/122
f 67/221/67 65/223/65 66/224/66
f 67/221/67 66/224/66 68/222/68
f 123/165/123 121/167/121 122/168/122
f 123/165/123 122/168/122 124/166/124
f 126/226/126 127/161/127 128/162/128
f 126/226/126 128/162/128 125/163/125
f 127/161/127 123/165/123 124/166/124
f 127/161/127 124/166/124 128/162/128
f 65/223/65 126/164/126 125/225/125
f 65/223/65 125/225/125 66/224/66

# The end.
